<svg width="512" height="512" viewBox="0 0 512 512" fill="none" xmlns="http://www.w3.org/2000/svg">
<path d="M375.071 17.8594H136.931C71.1707 17.8594 17.8613 71.1687 17.8613 136.929V375.069C17.8613 440.829 71.1707 494.138 136.931 494.138H375.071C440.831 494.138 494.14 440.829 494.14 375.069V136.929C494.14 71.1687 440.831 17.8594 375.071 17.8594Z" fill="#4F4F4F"/>
<path d="M176.022 133.878L58.1492 251.751C55.8242 254.076 55.8242 257.846 58.1492 260.171L176.022 378.044C178.347 380.369 182.117 380.369 184.442 378.044L302.315 260.171C304.64 257.846 304.64 254.076 302.315 251.751L184.442 133.878C182.117 131.553 178.347 131.553 176.022 133.878Z" fill="#CB4A49"/>
<path d="M176.078 234.967L159.239 251.806C156.914 254.131 156.914 257.9 159.239 260.225L176.078 277.064C178.403 279.389 182.173 279.389 184.498 277.064L201.337 260.225C203.662 257.9 203.662 254.131 201.337 251.806L184.498 234.967C182.173 232.642 178.403 232.642 176.078 234.967Z" fill="#FED958"/>
<path d="M84.659 253.618C83.6111 255.015 83.6111 256.325 84.659 257.548L162.459 337.706C163.856 339.102 164.73 340.325 165.079 341.373C165.428 342.246 165.603 344.079 165.603 346.874V378.308C165.603 382.675 164.992 384.944 163.769 385.119C162.546 385.294 160.188 383.547 156.696 379.88L54.0104 271.955C52.6134 270.383 51.7401 269.336 51.3909 268.812C51.2162 268.288 51.1289 267.065 51.1289 265.144V246.808C51.1289 244.712 51.2162 243.315 51.3909 242.616C51.7401 241.744 52.6134 240.608 54.0104 239.211L156.696 131.286C160.188 127.619 162.546 125.872 163.769 126.047C164.992 126.222 165.603 128.492 165.603 132.858V164.292C165.603 167.087 165.428 169.007 165.079 170.055C164.73 170.928 163.856 172.064 162.459 173.461L84.659 253.618ZM197.387 173.461C195.99 172.064 195.116 170.928 194.768 170.055C194.419 169.007 194.244 167.087 194.244 164.292V132.858C194.244 128.492 194.854 126.222 196.077 126.047C197.3 125.872 199.658 127.619 203.15 131.286L305.836 239.211C307.233 240.608 308.018 241.744 308.193 242.616C308.542 243.315 308.717 244.712 308.717 246.808V265.144C308.717 267.065 308.542 268.288 308.193 268.812C308.018 269.336 307.233 270.383 305.836 271.955L203.15 379.88C199.658 383.547 197.3 385.294 196.077 385.119C194.854 384.944 194.244 382.675 194.244 378.308V346.874C194.244 344.079 194.419 342.246 194.768 341.373C195.116 340.325 195.99 339.102 197.387 337.706L275.187 257.548C276.235 256.325 276.235 255.015 275.187 253.618L197.387 173.461ZM382.938 253.618C381.89 255.015 381.89 256.325 382.938 257.548L460.738 337.706C462.135 339.102 463.008 340.325 463.358 341.373C463.707 342.246 463.882 344.079 463.882 346.874V378.308C463.882 382.675 463.27 384.944 462.048 385.119C460.825 385.294 458.468 383.547 454.975 379.88L352.29 271.955C350.892 270.383 350.019 269.336 349.67 268.812C349.495 268.288 349.408 267.065 349.408 265.144V246.808C349.408 244.712 349.495 243.315 349.67 242.616C350.019 241.744 350.892 240.608 352.29 239.211L454.975 131.286C458.468 127.619 460.825 125.872 462.048 126.047C463.27 126.222 463.882 128.492 463.882 132.858V164.292C463.882 167.087 463.707 169.007 463.358 170.055C463.008 170.928 462.135 172.064 460.738 173.461L382.938 253.618Z" fill="white"/>
</svg>
