<svg width="128" height="128" viewBox="0 0 128 128" fill="none" xmlns="http://www.w3.org/2000/svg">
<rect width="128" height="128" fill="#CCCCCC"/>
<path d="M20.9545 54.5455V72H18.9091L9.39773 58.2955H9.22727V72H7.11364V54.5455H9.15909L18.7045 68.2841H18.875V54.5455H20.9545ZM39.9112 63.2727C39.9112 65.1136 39.5788 66.7045 38.9141 68.0455C38.2493 69.3864 37.3374 70.4205 36.1783 71.1477C35.0192 71.875 33.6953 72.2386 32.2067 72.2386C30.718 72.2386 29.3942 71.875 28.2351 71.1477C27.076 70.4205 26.1641 69.3864 25.4993 68.0455C24.8345 66.7045 24.5021 65.1136 24.5021 63.2727C24.5021 61.4318 24.8345 59.8409 25.4993 58.5C26.1641 57.1591 27.076 56.125 28.2351 55.3977C29.3942 54.6705 30.718 54.3068 32.2067 54.3068C33.6953 54.3068 35.0192 54.6705 36.1783 55.3977C37.3374 56.125 38.2493 57.1591 38.9141 58.5C39.5788 59.8409 39.9112 61.4318 39.9112 63.2727ZM37.8658 63.2727C37.8658 61.7614 37.6129 60.4858 37.1072 59.446C36.6072 58.4062 35.9283 57.6193 35.0703 57.0852C34.218 56.5511 33.2635 56.2841 32.2067 56.2841C31.1499 56.2841 30.1925 56.5511 29.3345 57.0852C28.4822 57.6193 27.8033 58.4062 27.2976 59.446C26.7976 60.4858 26.5476 61.7614 26.5476 63.2727C26.5476 64.7841 26.7976 66.0597 27.2976 67.0994C27.8033 68.1392 28.4822 68.9261 29.3345 69.4602C30.1925 69.9943 31.1499 70.2614 32.2067 70.2614C33.2635 70.2614 34.218 69.9943 35.0703 69.4602C35.9283 68.9261 36.6072 68.1392 37.1072 67.0994C37.6129 66.0597 37.8658 64.7841 37.8658 63.2727ZM52.3288 54.5455V72H50.2152V54.5455H52.3288ZM56.5668 54.5455H59.0895L65.0213 69.0341H65.2259L71.1577 54.5455H73.6804V72H71.7031V58.7386H71.5327L66.0781 72H64.169L58.7145 58.7386H58.544V72H56.5668V54.5455ZM78.6342 72H76.4183L82.8274 54.5455H85.0092L91.4183 72H89.2024L83.9865 57.3068H83.8501L78.6342 72ZM79.4524 65.1818H88.3842V67.0568H79.4524V65.1818ZM105.249 60C105.061 59.4261 104.814 58.9119 104.507 58.4574C104.206 57.9972 103.845 57.6051 103.425 57.2812C103.01 56.9574 102.538 56.7102 102.01 56.5398C101.482 56.3693 100.902 56.2841 100.271 56.2841C99.2372 56.2841 98.2969 56.5511 97.4503 57.0852C96.6037 57.6193 95.9304 58.4062 95.4304 59.446C94.9304 60.4858 94.6804 61.7614 94.6804 63.2727C94.6804 64.7841 94.9332 66.0597 95.4389 67.0994C95.9446 68.1392 96.6293 68.9261 97.4929 69.4602C98.3565 69.9943 99.3281 70.2614 100.408 70.2614C101.408 70.2614 102.288 70.0483 103.05 69.6222C103.817 69.1903 104.413 68.5824 104.839 67.7983C105.271 67.0085 105.487 66.0795 105.487 65.0114L106.135 65.1477H100.885V63.2727H107.533V65.1477C107.533 66.5852 107.226 67.8352 106.612 68.8977C106.004 69.9602 105.163 70.7841 104.089 71.3693C103.021 71.9489 101.794 72.2386 100.408 72.2386C98.8622 72.2386 97.5043 71.875 96.3338 71.1477C95.169 70.4205 94.2599 69.3864 93.6065 68.0455C92.9588 66.7045 92.6349 65.1136 92.6349 63.2727C92.6349 61.892 92.8196 60.6506 93.1889 59.5483C93.5639 58.4403 94.0923 57.4972 94.7741 56.7188C95.456 55.9403 96.2628 55.3438 97.1946 54.929C98.1264 54.5142 99.152 54.3068 100.271 54.3068C101.192 54.3068 102.05 54.446 102.845 54.7244C103.646 54.9972 104.359 55.3864 104.984 55.892C105.615 56.392 106.141 56.9915 106.561 57.6903C106.982 58.3835 107.271 59.1534 107.43 60H105.249ZM111.153 72V54.5455H121.687V56.4205H113.266V62.3182H121.141V64.1932H113.266V70.125H121.823V72H111.153Z" fill="white"/>
</svg>
