<svg width="1000" height="231" viewBox="0 0 1000 231" fill="none" xmlns="http://www.w3.org/2000/svg">
<g clip-path="url(#clip0_1465_52)">
<path d="M172.761 0H57.5871C25.7826 0 0 25.7826 0 57.5871V172.761C0 204.566 25.7826 230.348 57.5871 230.348H172.761C204.566 230.348 230.348 204.566 230.348 172.761V57.5871C230.348 25.7826 204.566 0 172.761 0Z" fill="#4F4F4F"/>
<path d="M76.4936 56.1119L19.4852 113.12C18.3608 114.245 18.3608 116.068 19.4852 117.192L76.4935 174.201C77.618 175.325 79.4411 175.325 80.5656 174.201L137.574 117.192C138.698 116.068 138.698 114.245 137.574 113.12L80.5656 56.1119C79.4411 54.9875 77.618 54.9875 76.4936 56.1119Z" fill="#CB4A49"/>
<path d="M76.5199 105.004L68.3759 113.148C67.2514 114.272 67.2514 116.095 68.3759 117.22L76.5199 125.364C77.6444 126.488 79.4675 126.488 80.5919 125.364L88.736 117.22C89.8604 116.095 89.8604 114.272 88.736 113.148L80.5919 105.004C79.4675 103.879 77.6444 103.879 76.5199 105.004Z" fill="#FED958"/>
<path d="M32.3064 114.021C31.7996 114.696 31.7996 115.33 32.3064 115.921L69.9338 154.689C70.6093 155.364 71.032 155.956 71.2007 156.463C71.3694 156.885 71.4541 157.772 71.4541 159.123V174.326C71.4541 176.438 71.1587 177.536 70.5672 177.62C69.9758 177.705 68.8356 176.86 67.1466 175.086L17.4835 122.889C16.8078 122.129 16.3854 121.622 16.2165 121.369C16.1321 121.116 16.0898 120.524 16.0898 119.595V110.727C16.0898 109.713 16.1321 109.038 16.2165 108.7C16.3854 108.278 16.8078 107.728 17.4835 107.053L67.1466 54.856C68.8356 53.0823 69.9758 52.2377 70.5672 52.3222C71.1587 52.4066 71.4541 53.5046 71.4541 55.6162V70.8191C71.4541 72.1707 71.3694 73.0996 71.2007 73.6064C71.032 74.0285 70.6093 74.5779 69.9338 75.2534L32.3064 114.021ZM86.8264 75.2534C86.1509 74.5779 85.7282 74.0285 85.5595 73.6064C85.3907 73.0996 85.3061 72.1707 85.3061 70.8191V55.6162C85.3061 53.5046 85.6015 52.4066 86.1929 52.3222C86.7843 52.2377 87.9246 53.0823 89.6136 54.856L139.277 107.053C139.952 107.728 140.332 108.278 140.417 108.7C140.586 109.038 140.67 109.713 140.67 110.727V119.595C140.67 120.524 140.586 121.116 140.417 121.369C140.332 121.622 139.952 122.129 139.277 122.889L89.6136 175.086C87.9246 176.86 86.7843 177.705 86.1929 177.62C85.6015 177.536 85.3061 176.438 85.3061 174.326V159.123C85.3061 157.772 85.3907 156.885 85.5595 156.463C85.7282 155.956 86.1509 155.364 86.8264 154.689L124.454 115.921C124.961 115.33 124.961 114.696 124.454 114.021L86.8264 75.2534ZM176.567 114.021C176.06 114.696 176.06 115.33 176.567 115.921L214.194 154.689C214.87 155.364 215.292 155.956 215.461 156.463C215.63 156.885 215.714 157.772 215.714 159.123V174.326C215.714 176.438 215.418 177.536 214.828 177.62C214.236 177.705 213.096 176.86 211.407 175.086L161.744 122.889C161.068 122.129 160.646 121.622 160.477 121.369C160.392 121.116 160.35 120.524 160.35 119.595V110.727C160.35 109.713 160.392 109.038 160.477 108.7C160.646 108.278 161.068 107.728 161.744 107.053L211.407 54.856C213.096 53.0823 214.236 52.2377 214.828 52.3222C215.418 52.4066 215.714 53.5046 215.714 55.6162V70.8191C215.714 72.1707 215.63 73.0996 215.461 73.6064C215.292 74.0285 214.87 74.5779 214.194 75.2534L176.567 114.021Z" fill="white"/>
<path d="M385.522 115.122C385.522 128.824 382.925 140.48 377.731 150.092C372.578 159.703 365.543 167.044 356.627 172.116C347.752 177.147 337.772 179.662 326.688 179.662C315.522 179.662 305.502 177.127 296.626 172.055C287.751 166.983 280.737 159.642 275.583 150.03C270.43 140.419 267.854 128.783 267.854 115.122C267.854 101.42 270.43 89.7642 275.583 80.1529C280.737 70.541 287.751 63.22 296.626 58.1892C305.502 53.1178 315.522 50.582 326.688 50.582C337.772 50.582 347.752 53.1178 356.627 58.1892C365.543 63.22 372.578 70.541 377.731 80.1529C382.925 89.7642 385.522 101.42 385.522 115.122ZM358.59 115.122C358.59 106.247 357.261 98.7622 354.602 92.6683C351.985 86.5739 348.283 81.9525 343.498 78.8031C338.713 75.6536 333.11 74.0792 326.688 74.0792C320.266 74.0792 314.663 75.6536 309.878 78.8031C305.093 81.9525 301.371 86.5739 298.712 92.6683C296.095 98.7622 294.786 106.247 294.786 115.122C294.786 123.997 296.095 131.482 298.712 137.576C301.371 143.67 305.093 148.292 309.878 151.441C314.663 154.591 320.266 156.165 326.688 156.165C333.11 156.165 338.713 154.591 343.498 151.441C348.283 148.292 351.985 143.67 354.602 137.576C357.261 131.482 358.59 123.997 358.59 115.122ZM483.115 110.582L459.188 112.054C458.78 110.01 457.9 108.169 456.55 106.533C455.2 104.856 453.422 103.527 451.213 102.546C449.045 101.523 446.448 101.012 443.422 101.012C439.373 101.012 435.957 101.871 433.176 103.589C430.395 105.265 429.004 107.515 429.004 110.337C429.004 112.587 429.904 114.488 431.704 116.042C433.503 117.597 436.591 118.844 440.967 119.785L458.023 123.221C467.184 125.102 474.015 128.128 478.513 132.3C483.013 136.472 485.262 141.952 485.262 148.742C485.262 154.918 483.442 160.337 479.802 164.999C476.202 169.662 471.254 173.302 464.955 175.92C458.698 178.497 451.479 179.785 443.299 179.785C430.824 179.785 420.885 177.188 413.483 171.993C406.121 166.758 401.806 159.642 400.538 150.644L426.243 149.294C427.021 153.098 428.902 156.001 431.888 158.005C434.873 159.969 438.698 160.95 443.36 160.95C447.941 160.95 451.622 160.071 454.403 158.312C457.225 156.513 458.657 154.202 458.698 151.38C458.657 149.007 457.655 147.065 455.692 145.552C453.729 143.997 450.702 142.811 446.612 141.993L430.292 138.742C421.09 136.902 414.239 133.711 409.741 129.171C405.282 124.631 403.053 118.844 403.053 111.809C403.053 105.756 404.689 100.541 407.961 96.165C411.274 91.7889 415.916 88.4143 421.888 86.0423C427.9 83.6703 434.935 82.484 442.992 82.484C454.894 82.484 464.26 84.9994 471.091 90.0302C477.961 95.0605 481.97 101.912 483.115 110.582ZM528.591 179.723C522.578 179.723 517.22 178.68 512.517 176.595C507.813 174.468 504.091 171.339 501.351 167.208C498.652 163.036 497.302 157.842 497.302 151.625C497.302 146.39 498.263 141.993 500.185 138.435C502.108 134.877 504.725 132.014 508.038 129.846C511.351 127.678 515.114 126.042 519.327 124.938C523.58 123.834 528.038 123.057 532.701 122.607C538.182 122.034 542.599 121.503 545.953 121.012C549.306 120.48 551.74 119.703 553.253 118.68C554.766 117.658 555.523 116.145 555.523 114.141V113.772C555.523 109.887 554.296 106.881 551.842 104.754C549.429 102.627 545.993 101.564 541.535 101.564C536.832 101.564 533.089 102.607 530.308 104.692C527.527 106.737 525.687 109.314 524.787 112.423L500.615 110.459C501.842 104.733 504.255 99.7849 507.854 95.6127C511.453 91.4002 516.095 88.169 521.78 85.9197C527.507 83.6294 534.132 82.484 541.658 82.484C546.893 82.484 551.904 83.0973 556.689 84.3245C561.515 85.5517 565.789 87.4532 569.511 90.0302C573.274 92.6067 576.239 95.9197 578.405 99.9686C580.576 103.977 581.658 108.783 581.658 114.386V177.944H556.873V164.877H556.137C554.623 167.822 552.599 170.419 550.063 172.668C547.527 174.877 544.48 176.615 540.922 177.883C537.363 179.11 533.253 179.723 528.591 179.723ZM536.075 161.686C539.92 161.686 543.315 160.93 546.26 159.417C549.204 157.863 551.515 155.777 553.192 153.159C554.869 150.542 555.707 147.576 555.707 144.263V134.263C554.889 134.795 553.764 135.286 552.333 135.736C550.942 136.145 549.368 136.533 547.609 136.902C545.85 137.229 544.091 137.536 542.333 137.822C540.574 138.067 538.979 138.292 537.548 138.497C534.48 138.946 531.801 139.662 529.511 140.644C527.22 141.625 525.441 142.955 524.173 144.631C522.906 146.267 522.272 148.312 522.272 150.766C522.272 154.325 523.56 157.044 526.136 158.926C528.754 160.766 532.067 161.686 536.075 161.686ZM625.615 150.828L625.678 119.478H629.479L659.666 83.7112H689.663L649.11 131.073H642.914L625.615 150.828ZM601.935 177.944V52.2999H628.068V177.944H601.935ZM660.829 177.944L633.101 136.902L650.521 118.435L691.442 177.944H660.829ZM729.358 179.723C723.346 179.723 717.99 178.68 713.285 176.595C708.58 174.468 704.86 171.339 702.119 167.208C699.418 163.036 698.071 157.842 698.071 151.625C698.071 146.39 699.032 141.993 700.956 138.435C702.873 134.877 705.494 132.014 708.805 129.846C712.116 127.678 715.882 126.042 720.092 124.938C724.348 123.834 728.805 123.057 733.469 122.607C738.952 122.034 743.369 121.503 746.72 121.012C750.072 120.48 752.508 119.703 754.022 118.68C755.537 117.658 756.291 116.145 756.291 114.141V113.772C756.291 109.887 755.065 106.881 752.611 104.754C750.198 102.627 746.761 101.564 742.303 101.564C737.598 101.564 733.855 102.607 731.074 104.692C728.292 106.737 726.455 109.314 725.557 112.423L701.382 110.459C702.609 104.733 705.021 99.7849 708.621 95.6127C712.22 91.4002 716.861 88.169 722.551 85.9197C728.275 83.6294 734.898 82.484 742.424 82.484C747.659 82.484 752.669 83.0973 757.454 84.3245C762.28 85.5517 766.559 87.4532 770.279 90.0302C774.04 92.6067 777.005 95.9197 779.176 99.9686C781.342 103.977 782.424 108.783 782.424 114.386V177.944H757.639V164.877H756.902C755.393 167.822 753.366 170.419 750.832 172.668C748.292 174.877 745.246 176.615 741.687 177.883C738.128 179.11 734.022 179.723 729.358 179.723ZM736.844 161.686C740.685 161.686 744.083 160.93 747.025 159.417C749.974 157.863 752.283 155.777 753.959 153.159C755.635 150.542 756.475 147.576 756.475 144.263V134.263C755.658 134.795 754.535 135.286 753.101 135.736C751.707 136.145 750.135 136.533 748.379 136.902C746.617 137.229 744.86 137.536 743.098 137.822C741.342 138.067 739.746 138.292 738.312 138.497C735.249 138.946 732.571 139.662 730.279 140.644C727.987 141.625 726.208 142.955 724.941 144.631C723.674 146.267 723.04 148.312 723.04 150.766C723.04 154.325 724.325 157.044 726.905 158.926C729.519 160.766 732.836 161.686 736.844 161.686ZM828.839 123.466V177.944H802.701V83.7112H827.607V100.337H828.713C830.797 94.856 834.299 90.5209 839.205 87.3305C844.111 84.0993 850.066 82.484 857.057 82.484C863.599 82.484 869.306 83.9156 874.172 86.7783C879.044 89.6415 882.827 93.7314 885.522 99.0484C888.223 104.325 889.571 110.623 889.571 117.944V177.944H863.438V122.607C863.478 116.84 862.01 112.341 859.021 109.11C856.038 105.838 851.926 104.202 846.691 104.202C843.173 104.202 840.063 104.959 837.362 106.472C834.708 107.985 832.623 110.194 831.108 113.097C829.634 115.961 828.88 119.416 828.839 123.466ZM937.046 179.723C931.028 179.723 925.672 178.68 920.967 176.595C916.268 174.468 912.542 171.339 909.801 167.208C907.106 163.036 905.753 157.842 905.753 151.625C905.753 146.39 906.715 141.993 908.638 138.435C910.561 134.877 913.176 132.014 916.493 129.846C919.804 127.678 923.565 126.042 927.78 124.938C932.03 123.834 936.493 123.057 941.152 122.607C946.634 122.034 951.051 121.503 954.402 121.012C957.76 120.48 960.19 119.703 961.704 118.68C963.219 117.658 963.973 116.145 963.973 114.141V113.772C963.973 109.887 962.747 106.881 960.294 104.754C957.881 102.627 954.448 101.564 949.985 101.564C945.286 101.564 941.543 102.607 938.762 104.692C935.98 106.737 934.137 109.314 933.239 112.423L909.07 110.459C910.296 104.733 912.709 99.7849 916.308 95.6127C919.908 91.4002 924.549 88.169 930.233 85.9197C935.957 83.6294 942.585 82.484 950.112 82.484C955.347 82.484 960.357 83.0973 965.142 84.3245C969.968 85.5517 974.241 87.4532 977.961 90.0302C981.728 92.6067 984.693 95.9197 986.859 99.9686C989.024 103.977 990.112 108.783 990.112 114.386V177.944H965.327V164.877H964.59C963.075 167.822 961.054 170.419 958.514 172.668C955.98 174.877 952.934 176.615 949.375 177.883C945.816 179.11 941.704 179.723 937.046 179.723ZM944.526 161.686C948.373 161.686 951.765 160.93 954.713 159.417C957.656 157.863 959.965 155.777 961.647 153.159C963.323 150.542 964.158 147.576 964.158 144.263V134.263C963.34 134.795 962.217 135.286 960.783 135.736C959.395 136.145 957.817 136.533 956.061 136.902C954.304 137.229 952.542 137.536 950.786 137.822C949.024 138.067 947.429 138.292 946 138.497C942.931 138.946 940.253 139.662 937.961 140.644C935.675 141.625 933.896 142.955 932.623 144.631C931.356 146.267 930.723 148.312 930.723 150.766C930.723 154.325 932.012 157.044 934.587 158.926C937.207 160.766 940.518 161.686 944.526 161.686Z" fill="#4F4F4F"/>
</g>
<defs>
<clipPath id="clip0_1465_52">
<rect width="1000" height="230.348" fill="white"/>
</clipPath>
</defs>
</svg>
